<?xml version="1.0" standalone="no"?>
<!DOCTYPE svg PUBLIC "-//W3C//DTD SVG 20010904//EN"
 "http://www.w3.org/TR/2001/REC-SVG-20010904/DTD/svg10.dtd">
<svg version="1.0" xmlns="http://www.w3.org/2000/svg"
 width="800.000000pt" height="800.000000pt" viewBox="0 0 800.000000 800.000000"
 preserveAspectRatio="xMidYMid meet">

<g transform="translate(0.000000,800.000000) scale(0.100000,-0.100000)"
fill="#000000" stroke="none">
<path d="M4853 6815 c-230 -50 -385 -232 -458 -538 -53 -220 -79 -594 -57
-787 42 -355 212 -602 473 -690 76 -26 109 -25 151 3 29 20 51 25 144 30 353
19 572 184 656 492 19 70 22 106 22 285 0 169 -4 227 -23 334 -53 299 -133
489 -270 638 -181 197 -414 282 -638 233z"/>
<path d="M3025 6664 c-156 -23 -279 -68 -400 -148 -240 -161 -393 -428 -434
-761 -46 -381 58 -692 271 -805 33 -18 74 -48 90 -66 70 -80 388 -125 628 -90
327 48 595 211 704 429 100 199 111 484 30 765 -59 202 -136 335 -270 461
-140 133 -307 204 -504 215 -47 2 -98 2 -115 0z"/>
<path d="M6422 5070 c-86 -13 -176 -64 -267 -151 -374 -360 -517 -1014 -321
-1479 65 -152 185 -289 310 -350 54 -27 74 -32 110 -28 25 3 68 -1 98 -8 119
-31 270 -10 400 57 64 33 104 64 174 133 139 139 207 272 255 498 30 140 33
397 5 543 -33 180 -108 372 -186 479 -156 213 -385 334 -578 306z"/>
<path d="M1325 4819 c-140 -21 -216 -60 -308 -159 -147 -158 -247 -445 -247
-705 0 -417 232 -804 558 -933 59 -23 81 -26 187 -27 110 0 125 2 175 26 30
15 79 30 108 33 241 30 464 238 518 482 43 200 21 609 -43 804 -57 173 -182
325 -323 394 -159 77 -427 114 -625 85z"/>
<path d="M4320 4176 c-30 -7 -102 -28 -160 -46 -152 -47 -280 -51 -540 -15
-151 21 -223 26 -316 23 -117 -4 -125 -5 -197 -41 -109 -54 -167 -121 -260
-305 -85 -167 -168 -352 -237 -529 -26 -67 -60 -143 -75 -168 -57 -98 -129
-155 -196 -155 -54 0 -115 -36 -136 -79 -10 -22 -41 -57 -70 -80 -94 -74 -180
-218 -219 -366 -27 -104 -25 -311 4 -428 55 -223 172 -428 328 -577 149 -142
321 -224 501 -236 171 -13 318 29 563 161 316 169 405 190 755 182 127 -3 287
-12 356 -21 122 -15 159 -25 377 -105 208 -77 476 -56 709 54 113 53 170 91
252 169 170 162 249 349 258 611 6 167 -10 276 -61 420 -61 171 -139 289 -351
530 -136 155 -203 244 -355 470 -208 309 -351 441 -552 512 -61 22 -93 27
-198 29 -78 2 -145 -2 -180 -10z"/>
</g>
</svg>
